USFL
nRows=217
nColumns=2
inDegrees=yes
endheader
time	tib_ant_r	
2.96069	 54.216295	
2.99395	 54.286398	
3.02722	 54.215395	
3.06048	 54.265354	
3.09375	 54.175293	
3.12702	 54.120083	
3.16028	 53.974793	
3.19355	 53.938234	
3.22681	 54.013346	
3.26008	 54.051736	
3.29335	 54.055507	
3.32661	 54.081270	
3.35988	 54.127832	
3.39315	 54.182725	
3.42641	 54.264002	
3.45968	 54.162005	
3.49294	 54.139426	
3.52621	 54.179925	
3.55948	 54.165168	
3.59274	 54.190639	
3.62601	 54.180795	
3.65927	 54.185539	
3.69254	 54.264253	
3.72581	 54.272880	
3.75907	 54.255926	
3.79234	 54.282714	
3.8256	 54.318728	
3.85887	 54.239868	
3.89214	 54.273782	
3.9254	 54.279867	
3.95867	 54.244261	
3.99194	 54.277613	
4.0252	 54.270097	
4.05847	 54.290482	
4.09173	 54.290122	
4.125	 54.260276	
4.15827	 54.269046	
4.19153	 54.233453	
4.2248	 54.198234	
4.25806	 54.214502	
4.29133	 54.210580	
4.3246	 54.043374	
4.35786	 54.097995	
4.39113	 54.146149	
4.4244	 54.063823	
4.45766	 54.067482	
4.49093	 54.048062	
4.52419	 54.136484	
4.55746	 54.262728	
4.59073	 54.268654	
4.62399	 54.290105	
4.65726	 54.232396	
4.69052	 54.215320	
4.72379	 54.157007	
4.75706	 54.183177	
4.79032	 54.255080	
4.82359	 54.324796	
4.85685	 54.397562	
4.89012	 54.065088	
4.92339	 54.216343	
4.95665	 54.048091	
4.98992	 53.848822	
5.02319	 52.990427	
5.05645	 52.489569	
5.08972	 51.572099	
5.12298	 52.332123	
5.15625	 52.595111	
5.18952	 52.440694	
5.22278	 52.001008	
5.25605	 51.930570	
5.28931	 51.886605	
5.32258	 51.894052	
5.35585	 52.158207	
5.38911	 52.256445	
5.42238	 52.066230	
5.45565	 52.306383	
5.48891	 52.431794	
5.52218	 52.643514	
5.55544	 52.396551	
5.58871	 52.232686	
5.62198	 52.184997	
5.65524	 52.421448	
5.68851	 52.475572	
5.72177	 52.616723	
5.75504	 52.774996	
5.78831	 52.859609	
5.82157	 52.642264	
5.85484	 52.565968	
5.8881	 52.815166	
5.92137	 52.846070	
5.95464	 52.726484	
5.9879	 52.639087	
6.02117	 52.776307	
6.05444	 52.611923	
6.0877	 52.523487	
6.12097	 52.523448	
6.15423	 52.536617	
6.1875	 52.513046	
6.22077	 52.435126	
6.25403	 52.298415	
6.2873	 52.262990	
6.32056	 52.225380	
6.35383	 52.208347	
6.3871	 52.103945	
6.42036	 52.067742	
6.45363	 51.997128	
6.4869	 52.031784	
6.52016	 51.929245	
6.55343	 51.793201	
6.58669	 51.838586	
6.61996	 51.615566	
6.65323	 51.546100	
6.68649	 51.452822	
6.71976	 51.476768	
6.75302	 51.734101	
6.78629	 51.471353	
6.81956	 51.517248	
6.85282	 51.604484	
6.88609	 51.454320	
6.91935	 51.368320	
6.95262	 51.446316	
6.98589	 51.452790	
7.01915	 51.438332	
7.05242	 51.464506	
7.08569	 51.447829	
7.11895	 51.552536	
7.15222	 51.454708	
7.18548	 51.651214	
7.21875	 51.547648	
7.25202	 51.614230	
7.28528	 51.647245	
7.31855	 51.510531	
7.35181	 51.607429	
7.38508	 51.771782	
7.41835	 51.890941	
7.45161	 51.816587	
7.48488	 51.546632	
7.51815	 51.844559	
7.55141	 51.630479	
7.58468	 51.763363	
7.61794	 51.416940	
7.65121	 51.543552	
7.68448	 51.397759	
7.71774	 51.416278	
7.75101	 51.471104	
7.78427	 51.333110	
7.81754	 51.266224	
7.85081	 51.227432	
7.88407	 51.142487	
7.91734	 51.081034	
7.9506	 50.984707	
7.98387	 50.792783	
8.01714	 50.822407	
8.0504	 50.823597	
8.08367	 50.557159	
8.11694	 50.588289	
8.1502	 50.686799	
8.18347	 50.696049	
8.21673	 50.437094	
8.25	 50.349873	
8.28327	 50.576999	
8.31653	 50.662618	
8.3498	 50.422643	
8.38306	 50.574253	
8.41633	 50.412293	
8.4496	 50.212367	
8.48286	 50.095311	
8.51613	 50.144445	
8.5494	 50.212096	
8.58266	 50.124989	
8.61593	 49.938919	
8.64919	 49.903005	
8.68246	 49.907246	
8.71573	 49.878660	
8.74899	 50.000199	
8.78226	 50.052255	
8.81552	 50.048135	
8.84879	 50.013272	
8.88206	 49.896158	
8.91532	 49.988191	
8.94859	 50.057098	
8.98185	 49.991861	
9.01512	 49.958346	
9.04839	 49.909508	
9.08165	 49.832641	
9.11492	 49.879071	
9.14819	 49.808392	
9.18145	 49.830543	
9.21472	 49.917747	
9.24798	 49.883002	
9.28125	 49.880658	
9.31452	 49.927676	
9.34778	 49.940341	
9.38105	 49.908142	
9.41431	 49.885546	
9.44758	 49.786901	
9.48085	 50.256178	
9.51411	 50.408359	
9.54738	 50.268129	
9.58065	 50.074289	
9.61391	 50.398902	
9.64718	 50.590535	
9.68044	 51.316429	
9.71371	 51.791712	
9.74698	 52.106977	
9.78024	 51.988058	
9.81351	 52.115369	
9.84677	 52.001118	
9.88004	 51.692100	
9.91331	 51.898473	
9.94657	 51.886002	
9.97984	 51.782951	
10.0131	 51.709586	
10.0464	 51.819748	
10.0796	 51.895098	
10.1129	 51.982310	
10.1462	 51.964126	
